<svg id="Layer_1" data-name="Layer 1" xmlns="http://www.w3.org/2000/svg" viewBox="0 0 60 48"><defs><style>.cls-1{fill:#ff6610;}</style></defs><path class="cls-1" d="M58.31,39.45a14,14,0,0,1-13,7.52C25.58,47,24.4,17.16,17.63,17.16a3.59,3.59,0,0,0-1.55.4v7.92c0,5.5.42,8.09,3.9,8.09V34H1.69v-.38c4.7,0,4.7-2.59,4.7-8.09v-16c0-5.69,0-8.09-4.7-8.09V1H20V1.4c-3.48,0-3.9,2.59-3.9,8.09V17l6-6.56c1.55-1.69,4.61-5,4.61-7.19,0-1.27-.85-1.84-3.11-1.84V1H37.85V1.4c-6,0-12.55,6.26-15.42,9.36l-5.55,6A15.32,15.32,0,0,1,23.65,15c12,0,11.1,26.34,28.22,26.34,2.07,0,4.79-.38,6.2-2.07Z"/><path class="cls-1" d="M42.55,29.38a5.18,5.18,0,1,1,5.18,4.94A5.06,5.06,0,0,1,42.55,29.38Z"/></svg>